<mxfile host="app.diagrams.net" modified="2024-03-04T13:11:16.006Z" agent="Mozilla/5.0 (Windows NT 10.0; Win64; x64) AppleWebKit/537.36 (KHTML, like Gecko) Chrome/122.0.0.0 Safari/537.36 Edg/122.0.0.0" version="24.0.1" etag="RSOHRF26_MFthm-ZheVn" type="device">
  <diagram id="C5RBs43oDa-KdzZeNtuy" name="Page-1">
    <mxGraphModel dx="678" dy="417" grid="1" gridSize="10" guides="1" tooltips="1" connect="1" arrows="1" fold="1" page="1" pageScale="1" pageWidth="827" pageHeight="1169" math="0" shadow="0">
      <root>
        <mxCell id="WIyWlLk6GJQsqaUBKTNV-0" />
        <mxCell id="WIyWlLk6GJQsqaUBKTNV-1" parent="WIyWlLk6GJQsqaUBKTNV-0" />
        <mxCell id="kcdcYiv_zXcONNcV5wVf-20" style="edgeStyle=orthogonalEdgeStyle;rounded=0;orthogonalLoop=1;jettySize=auto;html=1;entryX=0.5;entryY=0;entryDx=0;entryDy=0;" edge="1" parent="WIyWlLk6GJQsqaUBKTNV-1" source="kcdcYiv_zXcONNcV5wVf-0" target="kcdcYiv_zXcONNcV5wVf-3">
          <mxGeometry relative="1" as="geometry" />
        </mxCell>
        <mxCell id="kcdcYiv_zXcONNcV5wVf-23" style="edgeStyle=orthogonalEdgeStyle;rounded=0;orthogonalLoop=1;jettySize=auto;html=1;entryX=0.5;entryY=0;entryDx=0;entryDy=0;" edge="1" parent="WIyWlLk6GJQsqaUBKTNV-1" source="kcdcYiv_zXcONNcV5wVf-0" target="kcdcYiv_zXcONNcV5wVf-21">
          <mxGeometry relative="1" as="geometry">
            <Array as="points">
              <mxPoint x="400" y="220" />
              <mxPoint x="340" y="220" />
            </Array>
          </mxGeometry>
        </mxCell>
        <mxCell id="kcdcYiv_zXcONNcV5wVf-0" value="" style="rounded=1;whiteSpace=wrap;html=1;" vertex="1" parent="WIyWlLk6GJQsqaUBKTNV-1">
          <mxGeometry x="340" y="170" width="120" height="30" as="geometry" />
        </mxCell>
        <mxCell id="kcdcYiv_zXcONNcV5wVf-1" value="Dashboard" style="text;html=1;align=center;verticalAlign=middle;whiteSpace=wrap;rounded=0;" vertex="1" parent="WIyWlLk6GJQsqaUBKTNV-1">
          <mxGeometry x="370" y="170" width="60" height="30" as="geometry" />
        </mxCell>
        <mxCell id="kcdcYiv_zXcONNcV5wVf-16" style="edgeStyle=orthogonalEdgeStyle;rounded=0;orthogonalLoop=1;jettySize=auto;html=1;entryX=0.5;entryY=0;entryDx=0;entryDy=0;" edge="1" parent="WIyWlLk6GJQsqaUBKTNV-1" source="kcdcYiv_zXcONNcV5wVf-3" target="kcdcYiv_zXcONNcV5wVf-6">
          <mxGeometry relative="1" as="geometry">
            <Array as="points">
              <mxPoint x="505" y="300" />
              <mxPoint x="620" y="300" />
            </Array>
          </mxGeometry>
        </mxCell>
        <mxCell id="kcdcYiv_zXcONNcV5wVf-17" style="edgeStyle=orthogonalEdgeStyle;rounded=0;orthogonalLoop=1;jettySize=auto;html=1;entryX=0.5;entryY=0;entryDx=0;entryDy=0;" edge="1" parent="WIyWlLk6GJQsqaUBKTNV-1" source="kcdcYiv_zXcONNcV5wVf-3" target="kcdcYiv_zXcONNcV5wVf-8">
          <mxGeometry relative="1" as="geometry" />
        </mxCell>
        <mxCell id="kcdcYiv_zXcONNcV5wVf-18" style="edgeStyle=orthogonalEdgeStyle;rounded=0;orthogonalLoop=1;jettySize=auto;html=1;entryX=0.5;entryY=0;entryDx=0;entryDy=0;" edge="1" parent="WIyWlLk6GJQsqaUBKTNV-1" source="kcdcYiv_zXcONNcV5wVf-3" target="kcdcYiv_zXcONNcV5wVf-10">
          <mxGeometry relative="1" as="geometry">
            <Array as="points">
              <mxPoint x="505" y="300" />
              <mxPoint x="390" y="300" />
            </Array>
          </mxGeometry>
        </mxCell>
        <mxCell id="kcdcYiv_zXcONNcV5wVf-3" value="" style="rounded=1;whiteSpace=wrap;html=1;" vertex="1" parent="WIyWlLk6GJQsqaUBKTNV-1">
          <mxGeometry x="445" y="240" width="120" height="50" as="geometry" />
        </mxCell>
        <mxCell id="kcdcYiv_zXcONNcV5wVf-5" value="contact List" style="text;html=1;align=center;verticalAlign=middle;whiteSpace=wrap;rounded=0;" vertex="1" parent="WIyWlLk6GJQsqaUBKTNV-1">
          <mxGeometry x="459" y="250" width="80" height="30" as="geometry" />
        </mxCell>
        <mxCell id="kcdcYiv_zXcONNcV5wVf-6" value="" style="rounded=1;whiteSpace=wrap;html=1;" vertex="1" parent="WIyWlLk6GJQsqaUBKTNV-1">
          <mxGeometry x="570" y="340" width="100" height="50" as="geometry" />
        </mxCell>
        <mxCell id="kcdcYiv_zXcONNcV5wVf-7" value="Contact" style="text;html=1;align=center;verticalAlign=middle;whiteSpace=wrap;rounded=0;" vertex="1" parent="WIyWlLk6GJQsqaUBKTNV-1">
          <mxGeometry x="590" y="350" width="60" height="30" as="geometry" />
        </mxCell>
        <mxCell id="kcdcYiv_zXcONNcV5wVf-8" value="" style="rounded=1;whiteSpace=wrap;html=1;" vertex="1" parent="WIyWlLk6GJQsqaUBKTNV-1">
          <mxGeometry x="454" y="340" width="100" height="50" as="geometry" />
        </mxCell>
        <mxCell id="kcdcYiv_zXcONNcV5wVf-9" value="Contact" style="text;html=1;align=center;verticalAlign=middle;whiteSpace=wrap;rounded=0;" vertex="1" parent="WIyWlLk6GJQsqaUBKTNV-1">
          <mxGeometry x="474" y="350" width="60" height="30" as="geometry" />
        </mxCell>
        <mxCell id="kcdcYiv_zXcONNcV5wVf-10" value="" style="rounded=1;whiteSpace=wrap;html=1;" vertex="1" parent="WIyWlLk6GJQsqaUBKTNV-1">
          <mxGeometry x="340" y="340" width="100" height="50" as="geometry" />
        </mxCell>
        <mxCell id="kcdcYiv_zXcONNcV5wVf-11" value="Contact" style="text;html=1;align=center;verticalAlign=middle;whiteSpace=wrap;rounded=0;" vertex="1" parent="WIyWlLk6GJQsqaUBKTNV-1">
          <mxGeometry x="360" y="350" width="60" height="30" as="geometry" />
        </mxCell>
        <mxCell id="kcdcYiv_zXcONNcV5wVf-21" value="" style="rounded=1;whiteSpace=wrap;html=1;" vertex="1" parent="WIyWlLk6GJQsqaUBKTNV-1">
          <mxGeometry x="300" y="240" width="80" height="60" as="geometry" />
        </mxCell>
        <mxCell id="kcdcYiv_zXcONNcV5wVf-22" value="Add Contact" style="text;html=1;align=center;verticalAlign=middle;whiteSpace=wrap;rounded=0;" vertex="1" parent="WIyWlLk6GJQsqaUBKTNV-1">
          <mxGeometry x="310" y="250" width="60" height="30" as="geometry" />
        </mxCell>
      </root>
    </mxGraphModel>
  </diagram>
</mxfile>
